<?xml version="1.0" encoding="utf-8"?>
<svg xmlns="http://www.w3.org/2000/svg" width="696" height="468" viewBox="0 0 696 468" fill="none">
<path d="M219.178 363.336C219.174 346.187 212.368 329.741 200.256 317.614C188.145 305.487 171.719 298.671 154.589 298.664C137.46 298.659 121.035 291.845 108.923 279.719C96.8108 267.593 90.0045 251.149 90 234V104.664C90 87.5139 96.8049 71.0664 108.918 58.9396C121.031 46.8128 137.459 40 154.589 40C171.719 40 188.148 46.8128 200.261 58.9396C212.374 71.0664 219.178 87.5139 219.178 104.664C219.185 121.814 225.993 138.26 238.106 150.387C250.219 162.514 266.646 169.329 283.776 169.336H412.955C430.084 169.341 446.511 176.155 458.624 188.28C470.737 200.406 477.546 216.851 477.552 234C477.557 251.149 484.363 267.593 496.475 279.719C508.587 291.845 525.013 298.659 542.142 298.664C559.145 298.859 575.386 305.758 587.34 317.864C599.295 329.971 606 346.308 606 363.332C606 380.356 599.295 396.693 587.34 408.8C575.386 420.906 559.145 427.805 542.142 428H283.776C266.647 427.993 250.222 421.179 238.109 409.053C225.996 396.928 219.187 380.485 219.178 363.336Z" fill="#E3FCF7"/>
<g clip-path="url(#clip0_49_10537)">
<path d="M283.49 340.09L189.007 369.947L148.708 242.121L217.156 220.491L226.584 252.729L251.77 239.49L283.49 340.09Z" fill="#F2C5EE" stroke="black" stroke-linecap="round" stroke-linejoin="round"/>
<path d="M217.156 220.491L251.77 239.49L226.584 252.729L217.156 220.491Z" fill="#F9EBFF" stroke="black" stroke-linecap="round" stroke-linejoin="round"/>
<path d="M233.514 249.084L235.506 255.953L251.77 239.49L233.514 249.084Z" fill="#00202D"/>
<path d="M251.357 357.465V375.243C251.357 394.199 289.157 409.57 335.793 409.57C382.429 409.57 420.229 394.199 420.229 375.243V357.465H251.357Z" fill="black" stroke="black" stroke-linecap="round" stroke-linejoin="round"/>
<path d="M251.357 300.476V366.758C251.357 385.714 289.157 401.085 335.793 401.085C382.429 401.085 420.229 385.714 420.229 366.758V300.476C420.229 281.52 382.429 266.158 335.793 266.158C289.157 266.158 251.357 281.52 251.357 300.476Z" fill="#00ED64" stroke="black" stroke-linecap="round" stroke-linejoin="round"/>
<path d="M420.229 300.476V366.758C420.229 385.714 382.429 401.085 335.793 401.085C289.157 401.085 251.357 385.714 251.357 366.758V300.476" stroke="black" stroke-linecap="round" stroke-linejoin="round"/>
<path d="M420.229 334.348C420.229 353.304 382.429 368.666 335.793 368.666C289.157 368.666 251.357 353.304 251.357 334.348" stroke="black" stroke-linecap="round" stroke-linejoin="round"/>
<path d="M403.794 280.136V387.089C414.124 381.398 420.229 374.366 420.229 366.749V300.485C420.229 292.877 414.124 285.836 403.794 280.145V280.136Z" fill="black" stroke="black" stroke-linecap="round" stroke-linejoin="round"/>
<path d="M335.785 334.812C382.421 334.812 420.221 319.449 420.221 300.485C420.221 281.52 382.412 266.158 335.785 266.158C289.157 266.158 251.349 281.529 251.349 300.485C251.349 319.441 289.149 334.812 335.785 334.812Z" fill="white" stroke="black" stroke-linecap="round" stroke-linejoin="round"/>
<path d="M320.165 290.762V303.012C320.165 306.511 327.155 309.365 335.793 309.365C344.432 309.365 351.422 306.52 351.422 303.012V290.762C351.422 287.263 344.432 284.409 335.793 284.409C327.155 284.409 320.165 287.254 320.165 290.762Z" fill="#B1FF05" stroke="black" stroke-linecap="round" stroke-linejoin="round"/>
<path d="M343.299 285.191L340.319 309.107C346.725 308.316 351.413 305.892 351.413 303.029V290.779C351.413 288.363 348.133 286.266 343.29 285.191H343.299Z" fill="black" stroke="black" stroke-linecap="round" stroke-linejoin="round"/>
<path d="M420.229 202.954C420.229 183.998 382.429 168.626 335.793 168.626C289.157 168.626 251.357 183.998 251.357 202.954" stroke="black" stroke-linecap="round" stroke-linejoin="round"/>
<path d="M251.357 197.117V263.39C251.357 282.346 289.157 297.717 335.793 297.717C382.429 297.717 420.229 282.346 420.229 263.39V197.117C420.229 178.161 382.429 162.79 335.793 162.79C289.157 162.79 251.357 178.161 251.357 197.117Z" fill="#00ED64" stroke="black" stroke-linecap="round" stroke-linejoin="round"/>
<path d="M403.794 176.768V283.738C414.124 278.047 420.229 271.006 420.229 263.389V197.116C420.229 189.499 414.124 182.459 403.794 176.768Z" fill="black" stroke="black" stroke-linecap="round" stroke-linejoin="round"/>
<path d="M335.785 231.444C382.421 231.444 420.221 216.081 420.221 197.117C420.221 178.152 382.412 162.79 335.785 162.79C289.157 162.79 251.349 178.161 251.349 197.117C251.349 216.073 289.149 231.444 335.785 231.444Z" fill="white" stroke="black" stroke-linecap="round" stroke-linejoin="round"/>
<path d="M420.229 197.117V263.39C420.229 282.346 382.429 297.717 335.793 297.717C289.157 297.717 251.357 282.346 251.357 263.39V197.117" stroke="black" stroke-linecap="round" stroke-linejoin="round"/>
<path d="M320.165 187.394V199.644C320.165 203.143 327.155 205.997 335.793 205.997C344.432 205.997 351.422 203.16 351.422 199.644V187.394C351.422 183.895 344.432 181.041 335.793 181.041C327.155 181.041 320.165 183.877 320.165 187.394Z" fill="#B1FF05" stroke="black" stroke-linecap="round" stroke-linejoin="round"/>
<path d="M343.299 181.823L340.319 205.739C346.725 204.948 351.413 202.524 351.413 199.653V187.402C351.413 184.986 348.133 182.897 343.29 181.823H343.299Z" fill="black" stroke="black" stroke-linecap="round" stroke-linejoin="round"/>
<path d="M251.358 93.7568V160.03C251.358 178.986 289.158 194.348 335.794 194.348C382.43 194.348 420.23 178.986 420.23 160.03V93.7568C420.23 74.8008 382.43 59.4297 335.794 59.4297C289.158 59.4297 251.358 74.8008 251.358 93.7568Z" fill="#00ED64" stroke="black" stroke-linecap="round" stroke-linejoin="round"/>
<path d="M420.23 93.7568C420.23 74.8008 382.43 59.4297 335.794 59.4297C289.158 59.4297 251.358 74.8008 251.358 93.7568" stroke="black" stroke-linecap="round" stroke-linejoin="round"/>
<path d="M420.229 93.748V160.03C420.229 178.986 382.429 194.348 335.793 194.348C289.157 194.348 251.357 178.986 251.357 160.03V93.748" stroke="black" stroke-linecap="round" stroke-linejoin="round"/>
<path d="M420.229 126.889C420.229 145.845 382.429 161.208 335.793 161.208C289.157 161.208 251.357 145.845 251.357 126.889" stroke="black" stroke-linecap="round" stroke-linejoin="round"/>
<path d="M420.229 230.249C420.229 249.205 382.429 264.576 335.793 264.576C289.157 264.576 251.357 249.205 251.357 230.249" stroke="black" stroke-linecap="round" stroke-linejoin="round"/>
<path d="M403.794 73.4082V180.37C414.124 174.679 420.229 167.638 420.229 160.03V93.7569C420.229 86.1487 414.124 79.1079 403.794 73.4168V73.4082Z" fill="black" stroke="black" stroke-linecap="round" stroke-linejoin="round"/>
<path d="M335.785 128.075C382.421 128.075 420.221 112.704 420.221 93.7482C420.221 74.7922 382.421 59.4297 335.785 59.4297C289.149 59.4297 251.349 74.8008 251.349 93.7568C251.349 112.713 289.149 128.084 335.785 128.084V128.075Z" fill="white" stroke="black" stroke-linecap="round" stroke-linejoin="round"/>
<path d="M511.801 297.39L400.016 270.121L436.82 118.886L517.804 138.641L507.8 176.338L540.765 178.367L511.801 297.39Z" fill="#F2C5EE" stroke="black" stroke-linecap="round" stroke-linejoin="round"/>
<path d="M517.804 138.641L540.765 178.367L507.8 176.338L517.804 138.641Z" fill="#F9EBFF" stroke="black" stroke-linecap="round" stroke-linejoin="round"/>
<path d="M516.868 176.897L514.721 184.918L540.765 178.367L516.868 176.897Z" fill="black"/>
<path d="M521.659 257.32L512.076 296.703L504.288 294.803L504.889 283.206C505.129 278.4 505.937 274.729 507.31 272.176C508.882 269.425 511.166 267.155 513.914 265.591C510.728 263.536 508.538 261.395 507.362 259.186C506.203 256.994 505.447 254.621 505.121 252.162C504.803 249.704 504.537 244.391 504.331 236.232C504.262 233.267 503.747 231.281 502.768 230.258C501.789 229.235 498.852 228.736 493.932 228.745V216.537H496.645C501.377 216.537 505.026 216.95 507.602 217.775C510.05 218.514 512.239 219.924 513.931 221.833C515.614 223.81 516.679 226.226 517.014 228.805C517.443 231.573 517.649 235.846 517.632 241.597C517.632 249.153 518.559 254.019 520.44 256.169C520.809 256.598 521.221 256.985 521.668 257.329L521.659 257.32Z" fill="black" stroke="black" stroke-linecap="round" stroke-linejoin="round"/>
<path d="M601.879 192.827C599.698 195.371 598.135 198.389 597.328 201.647C596.529 204.862 596.143 212.204 596.143 223.681C596.143 234.091 595.044 241.639 592.846 246.308C590.733 250.915 586.929 254.526 582.223 256.392C577.337 258.429 570.391 259.452 561.391 259.452H557.003V239.215C563.864 239.215 568.252 238.613 570.159 237.401C571.103 236.808 571.91 236.026 572.537 235.097C573.164 234.169 573.585 233.129 573.782 232.028L575.053 207.467C575.448 199.532 576.779 193.454 579.055 189.233C581.657 184.685 585.426 180.92 589.986 178.341C584.696 174.945 581.081 171.412 579.149 167.75C577.234 164.13 575.972 160.202 575.431 156.135C574.907 152.06 574.469 143.275 574.126 129.786C574.014 124.895 573.113 121.636 571.55 119.917C569.996 118.189 565.067 117.381 556.917 117.381V97.1611H561.383C569.197 97.1611 575.242 97.8403 579.518 99.1986C583.554 100.428 587.178 102.749 589.977 105.913C592.751 109.18 594.511 113.186 595.07 117.432C595.894 124.447 596.237 131.514 596.091 138.581C596.091 151.08 597.637 159.118 600.72 162.695C603.803 166.271 608.422 168.085 614.562 168.137V188.399C608.345 188.7 604.12 190.17 601.87 192.818L601.879 192.827Z" fill="#B45AF2" stroke="black" stroke-linecap="round" stroke-linejoin="round"/>
<path d="M98.406 276.336C100.965 278.219 103.043 280.669 104.486 283.498C105.902 286.292 107.834 292.98 110.282 303.563C112.506 313.165 115.133 319.888 118.156 323.722C121.084 327.513 125.369 330.032 130.109 330.754C135.047 331.588 141.667 331.038 149.971 329.112L154.015 328.175L149.696 309.512C143.368 310.982 139.194 311.36 137.176 310.655C136.18 310.311 135.261 309.761 134.489 309.039C133.716 308.317 133.097 307.448 132.685 306.477L126.271 284.099C124.218 276.869 121.685 271.548 118.688 268.135C115.322 264.499 111.037 261.834 106.28 260.432C110.436 256.168 113.012 252.136 114.017 248.345C115.013 244.597 115.331 240.703 114.962 236.843C114.575 232.974 113.107 224.781 110.539 212.264C109.595 207.734 109.741 204.536 110.806 202.61C111.87 200.684 116.241 198.879 123.763 197.134L119.444 178.487L115.322 179.442C108.118 181.118 102.682 183.035 99.0328 185.201C95.5722 187.204 92.7299 190.119 90.815 193.635C88.9602 197.246 88.1788 201.312 88.5824 205.352C89.3209 211.998 90.5145 218.592 92.1546 225.074C94.8252 236.602 95.1171 244.348 93.0305 248.302C90.9438 252.265 87.0797 254.922 81.4294 256.28L85.7573 274.97C91.5535 273.912 95.7697 274.368 98.406 276.328V276.336Z" fill="#B45AF2" stroke="black" stroke-linecap="round" stroke-linejoin="round"/>
<path d="M197.646 310.492C199.097 311.558 200.282 312.95 201.098 314.558C201.905 316.14 202.996 319.94 204.387 325.94C205.649 331.391 207.135 335.199 208.852 337.383C210.518 339.532 212.948 340.967 215.636 341.371C218.435 341.844 222.196 341.535 226.91 340.443L229.203 339.91L226.756 329.319C223.167 330.153 220.796 330.368 219.654 329.963C219.088 329.766 218.572 329.456 218.135 329.052C217.697 328.64 217.345 328.15 217.113 327.599L213.472 314.902C212.304 310.801 210.87 307.784 209.17 305.849C207.263 303.786 204.825 302.273 202.128 301.474C204.49 299.058 205.95 296.771 206.516 294.613C207.083 292.49 207.263 290.281 207.057 288.088C206.843 285.888 206.001 281.245 204.55 274.144C204.017 271.574 204.095 269.76 204.704 268.668C205.314 267.576 207.787 266.553 212.055 265.565L209.608 254.982L207.272 255.524C203.185 256.469 200.102 257.561 198.032 258.79C196.066 259.925 194.46 261.576 193.37 263.57C192.313 265.616 191.875 267.929 192.107 270.216C192.528 273.99 193.206 277.729 194.134 281.409C195.645 287.951 195.817 292.344 194.632 294.588C193.447 296.831 191.257 298.344 188.046 299.118L190.502 309.718C193.79 309.116 196.178 309.374 197.68 310.492H197.646Z" fill="black" stroke="black" stroke-linecap="round" stroke-linejoin="round"/>
<path d="M452.594 322.089L463.293 328.975L473.993 335.87L462.684 341.698L451.366 347.527L451.984 334.812L452.594 322.089Z" fill="white" stroke="black" stroke-linecap="round" stroke-linejoin="round"/>
<path d="M459.129 334.795L451.366 347.527L473.993 335.87L459.129 334.795Z" fill="black"/>
<path d="M459.129 334.795L452.594 322.089" stroke="black" stroke-linecap="round" stroke-linejoin="round"/>
<path d="M196.976 166.52C203.862 166.52 209.444 160.932 209.444 154.038C209.444 147.144 203.862 141.555 196.976 141.555C190.09 141.555 184.508 147.144 184.508 154.038C184.508 160.932 190.09 166.52 196.976 166.52Z" fill="white" stroke="black" stroke-linecap="round" stroke-linejoin="round"/>
<path d="M189.96 164.354C191.961 165.721 194.374 166.52 196.976 166.52C203.863 166.52 209.444 160.932 209.444 154.038C209.444 151.433 208.646 149.017 207.28 147.014C202.884 154.012 196.95 159.952 189.96 164.354Z" fill="black" stroke="black" stroke-linecap="round" stroke-linejoin="round"/>
<path d="M477.591 66.0493H463.19L455.994 78.5319L463.19 91.0059H477.591L484.787 78.5319L477.591 66.0493Z" fill="white" stroke="black" stroke-linecap="round" stroke-linejoin="round"/>
<path d="M463.19 91.0057H477.591L470.395 78.5317H455.994L463.19 91.0057Z" fill="black" stroke="black" stroke-width="0.25" stroke-linecap="round" stroke-linejoin="round"/>
<path d="M477.591 66.0493L470.395 78.5319" stroke="black" stroke-linecap="round" stroke-linejoin="round"/>
</g>
<defs>
<clipPath id="clip0_49_10537">
<rect width="534" height="351" fill="white" transform="translate(81 59)"/>
</clipPath>
</defs>
</svg>