<svg width="696" height="468" viewBox="0 0 696 468" fill="none" xmlns="http://www.w3.org/2000/svg">
<path d="M251 40H396.5C409.362 40.0045 421.695 45.1157 430.79 54.2103C439.884 63.3048 444.995 75.6384 445 88.5C445.004 101.362 450.116 113.695 459.21 122.79C468.305 131.884 480.638 136.996 493.5 137C506.363 137 518.699 142.11 527.795 151.205C536.89 160.301 542 172.637 542 185.5C542 198.363 536.89 210.699 527.795 219.795C518.699 228.89 506.363 234 493.5 234H445C419.277 234.009 394.61 244.231 376.421 262.421C358.231 280.61 348.009 305.277 348 331C348 356.726 337.78 381.398 319.589 399.589C301.398 417.78 276.726 428 251 428C225.274 428 200.602 417.78 182.411 399.589C164.22 381.398 154 356.726 154 331V137C154.009 111.277 164.231 86.6096 182.421 68.4206C200.61 50.2315 225.277 40.009 251 40Z" fill="#F9EBFF"/>
<g clip-path="url(#clip0_4953_17430)">
<path d="M511.61 122.6H237.553C217.216 122.6 200.73 139.122 200.73 159.503V322.677C200.73 343.059 217.216 359.581 237.553 359.581H511.61C531.946 359.581 548.432 343.059 548.432 322.677V159.503C548.432 139.122 531.946 122.6 511.61 122.6Z" fill="black"/>
<path d="M283.968 85.5293H388.745" stroke="black" stroke-miterlimit="10" stroke-dasharray="2 2"/>
<path d="M177.532 224.889V136.688C177.532 108.483 200.426 85.5293 228.578 85.5293H270.704" stroke="black" stroke-miterlimit="10" stroke-dasharray="2 2"/>
<path d="M571.64 238.377V325.561C571.64 353.766 548.745 376.72 520.594 376.72H355.741" stroke="black" stroke-miterlimit="10" stroke-dasharray="2 2"/>
<path d="M511.61 108.789H237.553C217.216 108.789 200.73 125.311 200.73 145.693V308.867C200.73 329.248 217.216 345.77 237.553 345.77H511.61C531.946 345.77 548.432 329.248 548.432 308.867V145.693C548.432 125.311 531.946 108.789 511.61 108.789Z" fill="#006CFA" stroke="black" stroke-linecap="round" stroke-linejoin="round"/>
<path d="M200.73 155.834H548.432V308.876C548.432 329.241 531.93 345.78 511.61 345.78H237.553C217.232 345.78 200.73 329.241 200.73 308.876V155.834Z" fill="white" stroke="black" stroke-linecap="round" stroke-linejoin="round"/>
<path d="M190.87 176.818L203.202 182.541L215.535 188.263L204.42 196.102L193.314 203.942L192.087 190.38L190.87 176.818Z" fill="white" stroke="black" stroke-linecap="round" stroke-linejoin="round"/>
<path d="M199.651 189.317L193.314 203.941L215.535 188.263L199.651 189.317Z" fill="black"/>
<path d="M199.651 189.317L190.87 176.818" stroke="black" stroke-linecap="round" stroke-linejoin="round"/>
<path d="M200.73 155.834H548.432" stroke="black" stroke-linecap="round" stroke-linejoin="round"/>
<path d="M312.157 183.262H225.026C223.345 183.262 221.982 184.628 221.982 186.312V187.218C221.982 188.903 223.345 190.269 225.026 190.269H312.157C313.838 190.269 315.201 188.903 315.201 187.218V186.312C315.201 184.628 313.838 183.262 312.157 183.262Z" fill="#B3FD34" stroke="black" stroke-linecap="round" stroke-linejoin="round"/>
<path d="M521.221 183.262H434.09C432.409 183.262 431.046 184.628 431.046 186.312V187.218C431.046 188.903 432.409 190.269 434.09 190.269H521.221C522.902 190.269 524.265 188.903 524.265 187.218V186.312C524.265 184.628 522.902 183.262 521.221 183.262Z" fill="#B3FD34" stroke="black" stroke-linecap="round" stroke-linejoin="round"/>
<path d="M521.23 276.871H225.026C223.345 276.871 221.982 278.237 221.982 279.922V280.828C221.982 282.513 223.345 283.878 225.026 283.878H521.23C522.911 283.878 524.274 282.513 524.274 280.828V279.922C524.274 278.237 522.911 276.871 521.23 276.871Z" fill="#B3FD34" stroke="black" stroke-linecap="round" stroke-linejoin="round"/>
<path d="M521.23 308.08H372.972C371.291 308.08 369.928 309.446 369.928 311.131V312.037C369.928 313.722 371.291 315.087 372.972 315.087H521.23C522.911 315.087 524.274 313.722 524.274 312.037V311.131C524.274 309.446 522.911 308.08 521.23 308.08Z" fill="#B3FD34" stroke="black" stroke-linecap="round" stroke-linejoin="round"/>
<path d="M285.822 245.671H225.026C223.345 245.671 221.982 247.037 221.982 248.722V249.628C221.982 251.312 223.345 252.678 225.026 252.678H285.822C287.503 252.678 288.866 251.312 288.866 249.628V248.722C288.866 247.037 287.503 245.671 285.822 245.671Z" fill="#B3FD34" stroke="black" stroke-linecap="round" stroke-linejoin="round"/>
<path d="M521.23 245.671H468.727C467.045 245.671 465.683 247.037 465.683 248.722V249.628C465.683 251.312 467.045 252.678 468.727 252.678H521.23C522.911 252.678 524.274 251.312 524.274 249.628V248.722C524.274 247.037 522.911 245.671 521.23 245.671Z" fill="#B3FD34" stroke="black" stroke-linecap="round" stroke-linejoin="round"/>
<path d="M421.315 221.469H521.23C522.911 221.469 524.274 220.103 524.274 218.418V217.512C524.274 215.827 522.911 214.461 521.23 214.461H421.315C419.634 214.461 418.271 215.827 418.271 217.512V218.418C418.271 220.103 419.634 221.469 421.315 221.469Z" fill="#B3FD34" stroke="black" stroke-linecap="round" stroke-linejoin="round"/>
<path d="M225.036 221.469H316.382C318.063 221.469 319.426 220.103 319.426 218.418V217.512C319.426 215.827 318.063 214.461 316.382 214.461H225.036C223.355 214.461 221.992 215.827 221.992 217.512V218.418C221.992 220.103 223.355 221.469 225.036 221.469Z" fill="#B3FD34" stroke="black" stroke-linecap="round" stroke-linejoin="round"/>
<path d="M229.878 140.025C233.592 140.025 236.603 137.008 236.603 133.286C236.603 129.564 233.592 126.547 229.878 126.547C226.164 126.547 223.154 129.564 223.154 133.286C223.154 137.008 226.164 140.025 229.878 140.025Z" fill="white" stroke="black" stroke-linecap="round" stroke-linejoin="round"/>
<path d="M248.52 140.025C252.234 140.025 255.245 137.008 255.245 133.286C255.245 129.564 252.234 126.547 248.52 126.547C244.806 126.547 241.796 129.564 241.796 133.286C241.796 137.008 244.806 140.025 248.52 140.025Z" fill="white" stroke="black" stroke-linecap="round" stroke-linejoin="round"/>
<path d="M267.153 140.025C270.867 140.025 273.877 137.008 273.877 133.286C273.877 129.564 270.867 126.547 267.153 126.547C263.439 126.547 260.429 129.564 260.429 133.286C260.429 137.008 263.439 140.025 267.153 140.025Z" fill="white" stroke="black" stroke-linecap="round" stroke-linejoin="round"/>
<path d="M344.146 285.607L344.045 242.629L417.911 199.652C395.774 187.015 367.714 186.183 344.1 199.929C318.863 214.619 305.534 241.964 307.453 269.29L207.639 323.158V330.331C207.639 345.742 220.101 358.231 235.477 358.231H288.018L340.097 325.644C362.825 340.861 393.135 342.821 418.373 328.131C441.995 314.385 455.186 289.554 455.204 264.021L381.338 306.998L344.146 285.597V285.607Z" fill="black" stroke="black" stroke-linecap="round" stroke-linejoin="round"/>
<path d="M455.204 264.03L448.305 251.568L438.841 281.733L455.204 264.03Z" fill="black" stroke="black" stroke-linecap="round" stroke-linejoin="round"/>
<path d="M417.911 199.652L411.012 187.19H388.745C388.745 187.19 392.683 202.361 392.923 202.37C393.163 202.379 406.981 206.012 406.981 206.012L417.911 199.652Z" fill="black" stroke="black" stroke-linecap="round" stroke-linejoin="round"/>
<path d="M374.438 208.601L411.519 230.177L411.417 273.155L374.226 294.546L337.145 272.97L337.246 229.992L374.438 208.601Z" fill="white" stroke="black" stroke-linecap="round" stroke-linejoin="round"/>
<path d="M374.226 294.546L374.337 251.569L337.246 229.992L337.145 272.97L374.226 294.546Z" fill="black"/>
<path d="M411.519 230.177L374.336 251.568" stroke="black" stroke-linecap="round" stroke-linejoin="round"/>
<path d="M337.246 273.154L337.145 230.177L411.011 187.2C388.874 174.562 360.814 173.73 337.2 187.477C311.963 202.166 298.634 229.511 300.553 256.838L200.739 310.705V317.879C200.739 333.29 213.201 345.779 228.578 345.779H281.118L333.197 313.192C355.925 328.409 386.236 330.368 411.473 315.679C435.095 301.932 448.286 277.102 448.304 251.569L374.438 294.546L337.246 273.145V273.154Z" fill="#00D2FF" stroke="black" stroke-linecap="round" stroke-linejoin="round"/>
<path d="M282.409 288.307L205.305 333.17C210.277 340.76 218.846 345.77 228.578 345.77H242.192L297.168 313.784C304.187 309.698 306.576 300.685 302.499 293.65C298.422 286.615 289.429 284.221 282.409 288.307Z" fill="white" stroke="black" stroke-linecap="round" stroke-linejoin="round"/>
<path d="M287.944 302.118L217.122 343.33" stroke="black" stroke-linecap="round" stroke-linejoin="round"/>
<path d="M201.957 224.03L213.063 216.191L200.73 210.469V224.89L201.957 224.03Z" fill="black"/>
<path d="M190.261 223.799L177.531 236.556L164.802 223.799" stroke="black" stroke-miterlimit="10" stroke-dasharray="2 2"/>
<path d="M558.209 234.975L570.939 222.218L583.677 234.975" stroke="black" stroke-miterlimit="10" stroke-dasharray="2 2"/>
<path d="M503.751 81.2951L484.887 100.191L473.994 83.0146L486.612 70.3682L503.751 81.2951Z" fill="black" stroke="black" stroke-linecap="round" stroke-linejoin="round"/>
<path d="M540.435 155.861L559.289 136.956L570.191 154.132L557.573 166.779L540.435 155.861Z" fill="black" stroke="black" stroke-linecap="round" stroke-linejoin="round"/>
<path d="M559.289 100.191L540.435 81.2951L557.573 70.3682L570.191 83.0146L559.289 100.191Z" fill="black" stroke="black" stroke-linecap="round" stroke-linejoin="round"/>
<path d="M484.887 136.956L503.751 155.861L486.612 166.779L473.994 154.132L484.887 136.956Z" fill="black" stroke="black" stroke-linecap="round" stroke-linejoin="round"/>
<path d="M531.017 59.349L524.145 52.4619C524.145 52.4619 521.498 56.2152 519.432 59.349H513.168L508.759 79.2153H535.426L531.017 59.349Z" fill="black" stroke="black" stroke-linecap="round" stroke-linejoin="round"/>
<path d="M511.268 169.257L506.296 170.911L513.168 177.798H531.017L535.426 157.941H508.759L511.268 169.257Z" fill="black" stroke="black" stroke-linecap="round" stroke-linejoin="round"/>
<path d="M462.998 117.007L456.126 120.631L462.998 127.518L482.812 131.937V105.211L462.998 109.63V117.007Z" fill="black" stroke="black" stroke-linecap="round" stroke-linejoin="round"/>
<path d="M574.315 102.742C574.315 102.742 573.918 105.331 573.558 107.928L561.364 105.21V131.936L581.187 127.517V109.629L574.315 102.742Z" fill="black" stroke="black" stroke-linecap="round" stroke-linejoin="round"/>
<path d="M490.385 86.7965C472.296 104.925 472.296 134.322 490.385 152.451C508.473 170.579 537.806 170.579 555.894 152.451C573.983 134.322 573.983 104.925 555.894 86.7965C537.806 68.6681 508.473 68.6681 490.385 86.7965ZM545.96 142.494C533.36 155.122 512.919 155.122 500.319 142.494C487.719 129.866 487.719 109.381 500.319 96.7527C512.919 84.1248 533.36 84.1248 545.96 96.7527C558.56 109.381 558.56 129.866 545.96 142.494Z" fill="black" stroke="black" stroke-linecap="round" stroke-linejoin="round"/>
<path d="M496.878 74.4084L478.024 93.304L467.122 76.1371L479.74 63.4814L496.878 74.4084Z" fill="#00ED64" stroke="black" stroke-linecap="round" stroke-linejoin="round"/>
<path d="M533.572 148.974L552.426 130.078L563.319 147.245L550.701 159.891L533.572 148.974Z" fill="#00ED64" stroke="black" stroke-linecap="round" stroke-linejoin="round"/>
<path d="M552.426 93.304L533.572 74.4084L550.701 63.4814L563.319 76.1371L552.426 93.304Z" fill="#00ED64" stroke="black" stroke-linecap="round" stroke-linejoin="round"/>
<path d="M478.024 130.078L496.878 148.974L479.74 159.891L467.122 147.245L478.024 130.078Z" fill="#00ED64" stroke="black" stroke-linecap="round" stroke-linejoin="round"/>
<path d="M528.554 72.3282H501.887L506.296 52.4619H524.145L528.554 72.3282Z" fill="#00ED64" stroke="black" stroke-linecap="round" stroke-linejoin="round"/>
<path d="M501.887 151.054H528.554L524.145 170.911H506.296L501.887 151.054Z" fill="#00ED64" stroke="black" stroke-linecap="round" stroke-linejoin="round"/>
<path d="M554.501 125.049V98.3232L574.315 102.742V120.63L554.501 125.049Z" fill="#00ED64" stroke="black" stroke-linecap="round" stroke-linejoin="round"/>
<path d="M475.949 98.3232V125.049L456.126 120.63V102.742L475.949 98.3232Z" fill="#00ED64" stroke="black" stroke-linecap="round" stroke-linejoin="round"/>
<path d="M482.471 78.8648C464.382 96.9932 464.382 126.391 482.471 144.519C500.559 162.647 529.892 162.647 547.98 144.519C566.068 126.391 566.068 96.9932 547.98 78.8648C529.892 60.7365 500.559 60.7365 482.471 78.8648ZM538.046 134.563C525.446 147.191 505.005 147.191 492.405 134.563C479.805 121.935 479.805 101.449 492.405 88.8211C505.005 76.1932 525.446 76.1932 538.046 88.8211C550.646 101.449 550.646 121.935 538.046 134.563Z" fill="#00ED64" stroke="black" stroke-linecap="round" stroke-linejoin="round"/>
<path d="M551.51 126.749C559.811 106.664 550.294 83.6381 530.254 75.3187C510.213 66.9994 487.238 76.5371 478.937 96.6218C470.636 116.706 480.153 139.732 500.193 148.052C520.234 156.371 543.209 146.833 551.51 126.749Z" stroke="black" stroke-linecap="square" stroke-linejoin="round" stroke-dasharray="2 2"/>
<path d="M181.332 403.539L185.833 411.073C190.639 419.106 210.535 416 230.266 404.149C250.005 392.297 262.117 376.175 257.311 368.142L252.809 360.607L181.332 403.539Z" fill="black" stroke="black" stroke-linecap="round" stroke-linejoin="round"/>
<path d="M166.896 379.392L183.693 407.476C188.499 415.51 208.396 412.404 228.126 400.552C247.865 388.701 259.977 372.579 255.171 364.545L238.374 336.46C233.568 328.427 213.672 331.533 193.941 343.385C174.211 355.236 162.091 371.358 166.896 379.392Z" fill="#00ED64"/>
<path d="M238.374 336.461L255.171 364.546C259.977 372.579 247.865 388.701 228.126 400.553C208.386 412.404 188.49 415.51 183.694 407.477L166.896 379.392" stroke="black" stroke-linecap="round" stroke-linejoin="round"/>
<path d="M246.952 350.809C251.758 358.842 239.647 374.964 219.907 386.816C200.167 398.667 180.271 401.773 175.475 393.74" stroke="black" stroke-linecap="round" stroke-linejoin="round"/>
<path d="M226.263 332.014L253.363 377.34C256.296 372.301 257.099 367.772 255.162 364.536L238.365 336.452C236.437 333.225 232.065 331.792 226.253 332.005L226.263 332.014Z" fill="black" stroke="black" stroke-linecap="round" stroke-linejoin="round"/>
<path d="M211.304 372.494C231.043 360.64 243.152 344.52 238.349 336.488C233.547 328.456 213.653 331.554 193.914 343.407C174.175 355.261 162.067 371.381 166.869 379.413C171.671 387.446 191.566 384.348 211.304 372.494Z" fill="white" stroke="black" stroke-linecap="round" stroke-linejoin="round"/>
<path d="M193.554 357.779L196.663 362.974C197.548 364.463 201.238 363.889 204.89 361.689C208.543 359.498 210.785 356.512 209.899 355.024L206.791 349.829C205.905 348.34 202.216 348.913 198.563 351.114C194.91 353.304 192.669 356.29 193.554 357.779Z" fill="#B3FD34" stroke="black" stroke-linecap="round" stroke-linejoin="round"/>
<path d="M201.938 349.542L206.735 360.432C209.253 358.463 210.618 356.253 209.89 355.033L206.781 349.838C206.172 348.821 204.254 348.765 201.938 349.542Z" fill="black" stroke="black" stroke-linecap="round" stroke-linejoin="round"/>
<path d="M213.662 295.138C208.857 287.105 188.96 290.211 169.23 302.062C149.49 313.914 137.379 330.036 142.185 338.069" stroke="black" stroke-linecap="round" stroke-linejoin="round"/>
<path d="M140.7 335.592L157.497 363.676C162.303 371.71 182.199 368.604 201.93 356.752C221.669 344.901 233.78 328.779 228.975 320.745L212.178 292.661C207.372 284.627 187.475 287.733 167.745 299.585C148.006 311.436 135.894 327.558 140.7 335.592Z" fill="#00ED64"/>
<path d="M200.076 288.223L227.176 333.549C230.109 328.51 230.912 323.981 228.975 320.745L212.178 292.66C210.25 289.434 205.878 288.001 200.066 288.214L200.076 288.223Z" fill="black" stroke="black" stroke-linecap="round" stroke-linejoin="round"/>
<path d="M185.121 328.684C204.86 316.831 216.969 300.71 212.166 292.678C207.364 284.646 187.47 287.744 167.731 299.598C147.992 311.451 135.884 327.572 140.686 335.604C145.488 343.636 165.382 340.538 185.121 328.684Z" fill="white" stroke="black" stroke-linecap="round" stroke-linejoin="round"/>
<path d="M212.187 292.661L228.984 320.746C233.79 328.779 221.678 344.902 201.939 356.753C182.199 368.604 162.303 371.71 157.507 363.677L140.709 335.592" stroke="black" stroke-linecap="round" stroke-linejoin="round"/>
<path d="M167.367 313.988L170.475 319.183C171.361 320.672 175.05 320.098 178.703 317.898C182.356 315.698 184.597 312.721 183.712 311.233L180.603 306.038C179.718 304.549 176.028 305.122 172.375 307.323C168.723 309.513 166.481 312.499 167.367 313.988Z" fill="#B3FD34" stroke="black" stroke-linecap="round" stroke-linejoin="round"/>
<path d="M175.751 305.742L180.548 316.632C183.066 314.663 184.431 312.454 183.703 311.233L180.594 306.038C179.985 305.021 178.067 304.966 175.751 305.742Z" fill="black" stroke="black" stroke-linecap="round" stroke-linejoin="round"/>
<path d="M114.513 291.801L131.31 319.885C136.115 327.919 156.012 324.813 175.742 312.961C195.482 301.11 207.593 284.988 202.787 276.954L185.99 248.87C181.184 240.836 161.288 243.942 141.558 255.794C121.818 267.645 109.707 283.767 114.513 291.801Z" fill="#00ED64"/>
<path d="M185.99 248.861C181.184 240.827 161.288 243.934 141.558 255.785C121.818 267.636 109.707 283.759 114.513 291.792" stroke="black" stroke-linecap="round" stroke-linejoin="round"/>
<path d="M185.99 248.86L202.787 276.945C207.593 284.978 195.482 301.101 175.742 312.952C156.003 324.803 136.106 327.91 131.31 319.876L114.513 291.801" stroke="black" stroke-linecap="round" stroke-linejoin="round"/>
<path d="M194.393 262.902C199.199 270.936 187.088 287.058 167.348 298.909C147.609 310.761 127.713 313.867 122.916 305.834" stroke="black" stroke-linecap="round" stroke-linejoin="round"/>
<path d="M220.58 306.703C225.386 314.737 213.275 330.859 193.535 342.71C173.796 354.562 153.9 357.668 149.103 349.634" stroke="black" stroke-linecap="round" stroke-linejoin="round"/>
<path d="M173.879 244.423L200.979 289.749C203.912 284.711 204.715 280.181 202.778 276.945L185.981 248.861C184.053 245.634 179.681 244.201 173.87 244.414L173.879 244.423Z" fill="black" stroke="black" stroke-linecap="round" stroke-linejoin="round"/>
<path d="M158.943 284.891C178.681 273.038 190.79 256.917 185.988 248.885C181.185 240.853 161.291 243.951 141.552 255.805C121.813 267.658 109.705 283.779 114.507 291.811C119.309 299.843 139.204 296.745 158.943 284.891Z" fill="white" stroke="black" stroke-linecap="round" stroke-linejoin="round"/>
<path d="M396.705 393.979H483.356" stroke="black" stroke-miterlimit="10" stroke-dasharray="2 2"/>
</g>
<defs>
<clipPath id="clip0_4953_17430">
<rect width="471" height="364" fill="white" transform="translate(113 52)"/>
</clipPath>
</defs>
</svg>
