<svg width="696" height="468" viewBox="0 0 696 468" fill="none" xmlns="http://www.w3.org/2000/svg">
<path d="M246.5 73.8L175.5 106.9C173.5 107.8 171.9 107 171.9 105C171.9 103 173.5 100.6 175.5 99.7L246.6 66.6C248.6 65.7 250.2 66.5 250.2 68.5C250.2 70.5 248.5 72.9 246.5 73.8Z" fill="#B1FF05" stroke="#001F2C" stroke-width="1.074" stroke-miterlimit="10"/>
<path d="M290.5 23L216.1 57.7V170.3L310.3 126.4V33.6L290.5 23Z" fill="#B1FF05" stroke="#001F2C" stroke-width="0.75" stroke-miterlimit="10"/>
<path d="M296.4 119.7L229.6 150.8C228.6 151.3 227.8 150.8 227.8 149.8C227.8 148.8 228.6 147.6 229.6 147.2L296.4 116C297.4 115.5 298.2 116 298.2 117C298.2 118.1 297.4 119.2 296.4 119.7Z" fill="#00D2FF" stroke="#001E2B" stroke-width="0.75" stroke-miterlimit="10"/>
<path d="M296.4 88.8L229.6 120C228.6 120.5 227.8 120 227.8 119C227.8 118 228.6 116.8 229.6 116.4L296.4 85.2C297.4 84.7 298.2 85.2 298.2 86.2C298.2 87.2 297.4 88.3 296.4 88.8Z" fill="#00D2FF" stroke="#001E2B" stroke-width="0.75" stroke-miterlimit="10"/>
<path d="M249.9 125.9L229.6 135.4C228.6 135.9 227.8 135.4 227.8 134.4C227.8 133.4 228.6 132.2 229.6 131.8L249.9 122.3C250.9 121.8 251.7 122.3 251.7 123.3C251.7 124.3 250.9 125.5 249.9 125.9Z" fill="#00D2FF" stroke="#001E2B" stroke-width="0.75" stroke-miterlimit="10"/>
<path d="M296.4 104.2L258.9 121.7C257.9 122.2 257.1 121.7 257.1 120.7C257.1 119.7 257.9 118.5 258.9 118.1L296.4 100.6C297.4 100.1 298.2 100.6 298.2 101.6C298.2 102.6 297.4 103.8 296.4 104.2Z" fill="#00D2FF" stroke="#001E2B" stroke-width="0.75" stroke-miterlimit="10"/>
<path d="M298.2 74.9L227.8 107.7V63.3L298.2 30.5V74.9Z" fill="white" stroke="#231F20" stroke-width="0.75" stroke-miterlimit="10"/>
<path d="M292.8 41.7L290.4 46.6L310.3 33.6L292.8 41.7Z" fill="#001E2B" stroke="#001E2B" stroke-width="0.75" stroke-miterlimit="10"/>
<path d="M290.5 23V42.8L310.3 33.6L290.5 23Z" fill="white" stroke="#231F20" stroke-width="0.75" stroke-miterlimit="10" stroke-linejoin="round"/>
<path d="M282.565 61.5246C286.376 56.7227 287.011 50.8815 283.983 48.478C280.955 46.0745 275.41 48.0189 271.599 52.8208C267.788 57.6227 267.153 63.4638 270.181 65.8673C273.209 68.2708 278.754 66.3265 282.565 61.5246Z" fill="#00D2FF" stroke="#001E2B" stroke-width="0.75" stroke-miterlimit="10"/>
<path d="M272.1 66.8C273.5 67.1 275.2 66.9 277.1 66C282 63.7 285.9 57.9 285.9 53C285.9 51.2 285.3 49.7 284.4 48.7C281.2 55.2 277 61.4 272.1 66.8Z" fill="#001E2B" stroke="#001E2B" stroke-width="0.75" stroke-miterlimit="10"/>
<path d="M253.6 62.1L263.3 74.4L273 86.6L253.6 95.7L234.2 104.7L243.9 83.4L253.6 62.1Z" fill="#001E2B" stroke="#001E2B" stroke-width="0.75" stroke-miterlimit="10"/>
<path d="M247.2 65.1L256.8 77.4L266.5 89.6L247.2 98.6L227.8 107.7L237.5 86.4L247.2 65.1Z" fill="#00D2FF" stroke="#001E2B" stroke-width="0.75" stroke-miterlimit="10"/>
<path d="M253.6 73.2C251.5 73.1 248.9 74.7 247.2 77.2C245.2 80.1 242.1 81.8 239.9 81.1" stroke="#231F20" stroke-width="0.75" stroke-miterlimit="10"/>
<path d="M592.5 182.5L464.4 122.8C449.9 116 438 98.6 438 84.1C438 69.6 449.9 63.2 464.4 70L592.5 129.7C607 136.5 618.9 153.9 618.9 168.4C618.9 182.9 607 189.3 592.5 182.5Z" fill="white" stroke="#231F20" stroke-miterlimit="10"/>
<path d="M456.6 98.7L471.4 99.7L456.6 86.7V80.1L480.6 101.3V106.4L456.6 105.2V98.7Z" fill="#00D2FF" stroke="#001E2B" stroke-width="0.75" stroke-miterlimit="10"/>
<path d="M456.6 98.7L471.4 99.7L456.6 86.7V80.1L480.6 101.3V106.4L456.6 105.2V98.7Z" fill="#00D2FF" stroke="#001E2B" stroke-width="0.75" stroke-miterlimit="10"/>
<path d="M488.6 107.6L599 159.1" stroke="#001E2B" stroke-miterlimit="10" stroke-dasharray="2 2"/>
<path d="M585.6 366.3L436.5 296.8C434.5 295.9 432.9 293.5 432.9 291.5C432.9 289.5 434.5 288.6 436.5 289.6L585.6 359.1C587.6 360 589.2 362.4 589.2 364.4C589.3 366.4 587.6 367.2 585.6 366.3Z" fill="#B1FF05" stroke="#001F2C" stroke-width="1.074" stroke-miterlimit="10"/>
<path d="M619.2 345.7L572.1 323.8C570.1 322.9 568.5 320.5 568.5 318.5C568.5 316.5 570.1 315.6 572.1 316.6L619.2 338.5C621.2 339.4 622.8 341.8 622.8 343.8C622.8 345.8 621.2 346.6 619.2 345.7Z" fill="#00D2FF" stroke="#001E2B" stroke-width="0.75" stroke-miterlimit="10"/>
<path d="M555.1 56.2L571.7 67.3L588.4 78.4L570.4 87.3L552.5 96.2L553.8 76.2L555.1 56.2Z" fill="white" stroke="#001E2B" stroke-width="0.75" stroke-miterlimit="10"/>
<path d="M565 76.3L552.5 96.2L588.4 78.4L565 76.3Z" fill="#001E2B"/>
<path d="M565 76.3L555.1 56.2" stroke="#001E2B" stroke-width="0.75" stroke-miterlimit="10"/>
<path d="M170.3 345.5L165.3 324.5L144.7 318.3L129 333.1L133.9 354.1L154.6 360.3L170.3 345.5Z" fill="white" stroke="#001E2B" stroke-width="0.75" stroke-miterlimit="10"/>
<path d="M129 333.1L133.9 354.1L149.6 339.3L144.7 318.3L129 333.1Z" fill="#001E2B" stroke="#001E2B" stroke-width="0.75" stroke-miterlimit="10"/>
<path d="M170.3 345.5L149.6 339.3" stroke="#001E2B" stroke-width="0.75" stroke-miterlimit="10"/>
<path d="M302.7 357.4V374.5C302.7 392.8 339.2 407.6 384.2 407.6C429.2 407.6 465.7 392.8 465.7 374.5V357.4H302.7Z" fill="#001E2B" stroke="#001E2B" stroke-width="0.75" stroke-miterlimit="10"/>
<path d="M302.7 302.5V366.4C302.7 384.7 339.2 399.5 384.2 399.5C429.2 399.5 465.7 384.7 465.7 366.4V302.5C465.7 284.2 429.2 269.4 384.2 269.4C339.2 269.4 302.7 284.2 302.7 302.5Z" fill="#00ED64"/>
<path d="M465.6 302.5V366.4C465.6 384.7 429.1 399.5 384.1 399.5C339.1 399.5 302.6 384.7 302.6 366.4V302.5" stroke="#231F20" stroke-width="0.75" stroke-miterlimit="10"/>
<path d="M465.6 335.1C465.6 353.4 429.1 368.2 384.1 368.2C339.1 368.2 302.6 353.4 302.6 335.1" stroke="#231F20" stroke-width="0.75" stroke-miterlimit="10"/>
<path d="M449.8 282.9V386C459.8 380.5 465.7 373.7 465.7 366.4V302.5C465.6 295.1 459.7 288.4 449.8 282.9Z" fill="#001E2B" stroke="#001E2B" stroke-width="0.75" stroke-miterlimit="10"/>
<path d="M384.2 335.6C429.211 335.6 465.7 320.781 465.7 302.5C465.7 284.219 429.211 269.4 384.2 269.4C339.189 269.4 302.7 284.219 302.7 302.5C302.7 320.781 339.189 335.6 384.2 335.6Z" fill="white" stroke="#231F20" stroke-width="0.75" stroke-miterlimit="10"/>
<path d="M369.1 293.1V304.9C369.1 308.3 375.9 311 384.2 311C392.5 311 399.3 308.3 399.3 304.9V293.1C399.3 289.7 392.5 287 384.2 287C375.9 287 369.1 289.7 369.1 293.1Z" fill="#B1FF05" stroke="#001E2B" stroke-width="0.75" stroke-miterlimit="10"/>
<path d="M391.4 287.7L388.5 310.7C394.7 309.9 399.2 307.6 399.2 304.8V293C399.2 290.8 396.1 288.8 391.4 287.7Z" fill="#001E2B" stroke="#001E2B" stroke-width="0.75" stroke-miterlimit="10"/>
<path d="M465.6 208.5C465.6 190.2 429.1 175.4 384.1 175.4C339.1 175.4 302.6 190.2 302.6 208.5" stroke="#231F20" stroke-width="0.75" stroke-miterlimit="10"/>
<path d="M302.7 202.9V266.8C302.7 285.1 339.2 299.9 384.2 299.9C429.2 299.9 465.7 285.1 465.7 266.8V202.9C465.7 184.6 429.2 169.8 384.2 169.8C339.2 169.8 302.7 184.6 302.7 202.9Z" fill="#00ED64"/>
<path d="M449.8 183.3V286.4C459.8 280.9 465.7 274.1 465.7 266.8V202.9C465.6 195.5 459.7 188.8 449.8 183.3Z" fill="#001E2B" stroke="#001E2B" stroke-width="0.75" stroke-miterlimit="10"/>
<path d="M384.2 236C429.211 236 465.7 221.181 465.7 202.9C465.7 184.619 429.211 169.8 384.2 169.8C339.189 169.8 302.7 184.619 302.7 202.9C302.7 221.181 339.189 236 384.2 236Z" fill="white" stroke="#231F20" stroke-width="0.75" stroke-miterlimit="10"/>
<path d="M465.6 202.9V266.8C465.6 285.1 429.1 299.9 384.1 299.9C339.1 299.9 302.6 285.1 302.6 266.8V202.9" stroke="#231F20" stroke-width="0.75" stroke-miterlimit="10"/>
<path d="M369.1 193.5V205.3C369.1 208.7 375.9 211.4 384.2 211.4C392.5 211.4 399.3 208.7 399.3 205.3V193.5C399.3 190.1 392.5 187.4 384.2 187.4C375.9 187.4 369.1 190.1 369.1 193.5Z" fill="#B1FF05" stroke="#001E2B" stroke-width="0.75" stroke-miterlimit="10"/>
<path d="M391.4 188.1L388.5 211.1C394.7 210.3 399.2 208 399.2 205.2V193.4C399.2 191.2 396.1 189.2 391.4 188.1Z" fill="#001E2B" stroke="#001E2B" stroke-width="0.75" stroke-miterlimit="10"/>
<path d="M302.7 103.3V167.2C302.7 185.5 339.2 200.3 384.2 200.3C429.2 200.3 465.7 185.5 465.7 167.2V103.3C465.7 85 429.2 70.2 384.2 70.2C339.2 70.2 302.7 85 302.7 103.3Z" fill="#00ED64"/>
<path d="M465.6 103.3C465.6 85 429.1 70.2 384.1 70.2C339.1 70.2 302.6 85 302.6 103.3" stroke="#231F20" stroke-width="0.75" stroke-miterlimit="10"/>
<path d="M465.6 103.3V167.2C465.6 185.5 429.1 200.3 384.1 200.3C339.1 200.3 302.6 185.5 302.6 167.2V103.3" stroke="#231F20" stroke-width="0.75" stroke-miterlimit="10"/>
<path d="M465.6 135.2C465.6 153.5 429.1 168.3 384.1 168.3C339.1 168.3 302.6 153.5 302.6 135.2" stroke="#231F20" stroke-width="0.75" stroke-miterlimit="10"/>
<path d="M465.6 234.8C465.6 253.1 429.1 267.9 384.1 267.9C339.1 267.9 302.6 253.1 302.6 234.8" stroke="#231F20" stroke-width="0.75" stroke-miterlimit="10"/>
<path d="M449.8 83.7V186.8C459.8 181.3 465.7 174.5 465.7 167.2V103.3C465.6 95.9 459.7 89.2 449.8 83.7Z" fill="#001E2B" stroke="#001E2B" stroke-width="0.75" stroke-miterlimit="10"/>
<path d="M384.2 136.4C429.211 136.4 465.7 121.581 465.7 103.3C465.7 85.0194 429.211 70.2 384.2 70.2C339.189 70.2 302.7 85.0194 302.7 103.3C302.7 121.581 339.189 136.4 384.2 136.4Z" fill="white" stroke="#231F20" stroke-width="0.75" stroke-miterlimit="10"/>
<path d="M378.7 271.7V367.5C378.7 380.5 368.2 386.1 355.2 380L183.1 299.7C170.1 293.6 159.6 278.2 159.6 265.2V169.4C159.6 156.4 170.1 150.8 183.1 156.9L355.2 237.2C368.2 243.2 378.7 258.7 378.7 271.7Z" fill="#FFF5F4" stroke="#231F20" stroke-width="0.75" stroke-miterlimit="10"/>
<path d="M269.1 339.9V197" stroke="#001E2B" stroke-width="0.75" stroke-miterlimit="10" stroke-linecap="round" stroke-dasharray="2 2"/>
<path d="M232.6 322.9V180" stroke="#001E2B" stroke-width="0.75" stroke-miterlimit="10" stroke-linecap="round" stroke-dasharray="2 2"/>
<path d="M305.6 356.9V214.1" stroke="#001E2B" stroke-width="0.75" stroke-miterlimit="10" stroke-linecap="round" stroke-dasharray="2 2"/>
<path d="M342.2 374V231.1" stroke="#001E2B" stroke-width="0.75" stroke-miterlimit="10" stroke-linecap="round" stroke-dasharray="2 2"/>
<path d="M196.1 305.8V163" stroke="#001E2B" stroke-width="0.75" stroke-miterlimit="10" stroke-linecap="round" stroke-dasharray="2 2"/>
<path d="M159.5 229.4L196.1 276.5L232.6 247.1L269.1 299.5L305.6 253.6L342.2 301.7L378.7 341.2" stroke="#001E2B" stroke-width="0.75" stroke-miterlimit="10" stroke-linecap="round" stroke-linejoin="round"/>
<path d="M166.258 237.872C169.199 235.537 168.578 229.857 164.87 225.185C161.162 220.513 155.771 218.618 152.829 220.953C149.887 223.288 150.509 228.968 154.217 233.64C157.925 238.312 163.316 240.207 166.258 237.872Z" fill="#00D2FF" stroke="#001E2B" stroke-width="0.75" stroke-miterlimit="10"/>
<path d="M163.584 234.504C165.358 233.096 164.987 229.675 162.755 226.863C160.523 224.051 157.276 222.913 155.502 224.321C153.729 225.729 154.1 229.149 156.332 231.961C158.564 234.773 161.811 235.912 163.584 234.504Z" fill="#0D427C"/>
<path d="M202.827 284.931C205.768 282.596 205.147 276.916 201.439 272.244C197.73 267.572 192.34 265.677 189.398 268.012C186.456 270.346 187.078 276.027 190.786 280.699C194.494 285.371 199.885 287.266 202.827 284.931Z" fill="#00D2FF" stroke="#001E2B" stroke-width="0.75" stroke-miterlimit="10"/>
<path d="M200.153 281.563C201.927 280.155 201.556 276.734 199.324 273.922C197.092 271.11 193.845 269.972 192.071 271.38C190.297 272.788 190.669 276.208 192.901 279.02C195.132 281.832 198.38 282.97 200.153 281.563Z" fill="#0D427C"/>
<path d="M239.346 256.44C242.288 254.105 241.667 248.425 237.958 243.752C234.25 239.08 228.859 237.185 225.918 239.52C222.976 241.855 223.597 247.535 227.306 252.208C231.014 256.88 236.405 258.774 239.346 256.44Z" fill="#00D2FF" stroke="#001E2B" stroke-width="0.75" stroke-miterlimit="10"/>
<path d="M236.673 253.071C238.447 251.664 238.075 248.243 235.844 245.431C233.612 242.619 230.365 241.481 228.591 242.888C226.817 244.296 227.189 247.717 229.42 250.529C231.652 253.341 234.899 254.479 236.673 253.071Z" fill="#0D427C"/>
<path d="M275.854 306.055C278.796 303.72 278.174 298.04 274.466 293.368C270.758 288.695 265.367 286.801 262.425 289.136C259.483 291.47 260.105 297.151 263.813 301.823C267.521 306.495 272.912 308.39 275.854 306.055Z" fill="#00D2FF" stroke="#001E2B" stroke-width="0.75" stroke-miterlimit="10"/>
<path d="M273.18 302.687C274.954 301.279 274.583 297.858 272.351 295.046C270.119 292.234 266.872 291.096 265.098 292.504C263.325 293.911 263.696 297.332 265.928 300.144C268.16 302.956 271.407 304.094 273.18 302.687Z" fill="#0D427C"/>
<path d="M312.348 262.072C315.29 259.737 314.668 254.057 310.96 249.385C307.252 244.713 301.861 242.818 298.919 245.153C295.978 247.488 296.599 253.168 300.307 257.84C304.015 262.512 309.406 264.407 312.348 262.072Z" fill="#00D2FF" stroke="#001E2B" stroke-width="0.75" stroke-miterlimit="10"/>
<path d="M309.675 258.704C311.448 257.296 311.077 253.875 308.845 251.063C306.613 248.251 303.366 247.113 301.593 248.521C299.819 249.929 300.19 253.349 302.422 256.161C304.654 258.973 307.901 260.112 309.675 258.704Z" fill="#0D427C"/>
<path d="M348.898 310.138C351.839 307.803 351.218 302.122 347.51 297.45C343.801 292.778 338.411 290.883 335.469 293.218C332.527 295.553 333.149 301.233 336.857 305.905C340.565 310.578 345.956 312.472 348.898 310.138Z" fill="#00D2FF" stroke="#001E2B" stroke-width="0.75" stroke-miterlimit="10"/>
<path d="M346.224 306.769C347.998 305.362 347.627 301.941 345.395 299.129C343.163 296.317 339.916 295.179 338.142 296.586C336.369 297.994 336.74 301.415 338.972 304.227C341.204 307.039 344.451 308.177 346.224 306.769Z" fill="#0D427C"/>
<path d="M385.454 349.636C388.395 347.301 387.774 341.621 384.066 336.948C380.357 332.276 374.967 330.382 372.025 332.716C369.083 335.051 369.704 340.731 373.413 345.404C377.121 350.076 382.512 351.97 385.454 349.636Z" fill="#00D2FF" stroke="#001E2B" stroke-width="0.75" stroke-miterlimit="10"/>
<path d="M382.78 346.267C384.554 344.86 384.183 341.439 381.951 338.627C379.719 335.815 376.472 334.677 374.698 336.085C372.924 337.492 373.296 340.913 375.528 343.725C377.759 346.537 381.007 347.675 382.78 346.267Z" fill="#0D427C"/>
<path d="M361.8 246.9V342.7C361.8 355.7 351.3 361.3 338.3 355.2L166.2 274.9C153.2 268.8 142.7 253.4 142.7 240.4V144.6C142.7 131.6 153.2 126 166.2 132.1L338.3 212.4C351.3 218.5 361.8 233.9 361.8 246.9Z" fill="#FFF5F4" stroke="#231F20" stroke-width="0.75" stroke-miterlimit="10"/>
<path d="M252.2 315.2V172.3" stroke="#001E2B" stroke-width="0.75" stroke-miterlimit="10" stroke-linecap="round" stroke-dasharray="2 2"/>
<path d="M215.7 298.1V155.3" stroke="#001E2B" stroke-width="0.75" stroke-miterlimit="10" stroke-linecap="round" stroke-dasharray="2 2"/>
<path d="M288.8 332.2V189.4" stroke="#001E2B" stroke-width="0.75" stroke-miterlimit="10" stroke-linecap="round" stroke-dasharray="2 2"/>
<path d="M325.3 349.2V206.4" stroke="#001E2B" stroke-width="0.75" stroke-miterlimit="10" stroke-linecap="round" stroke-dasharray="2 2"/>
<path d="M179.2 281.1V138.3" stroke="#001E2B" stroke-width="0.75" stroke-miterlimit="10" stroke-linecap="round" stroke-dasharray="2 2"/>
<path d="M142.7 204.6L179.2 251.8L215.7 222.4L252.2 274.8L288.8 228.9L325.3 277L361.8 271.5" stroke="#001E2B" stroke-width="0.75" stroke-miterlimit="10" stroke-linecap="round" stroke-linejoin="round"/>
<path d="M149.396 213.051C152.337 210.716 151.716 205.036 148.008 200.364C144.3 195.692 138.909 193.797 135.967 196.132C133.025 198.466 133.647 204.147 137.355 208.819C141.063 213.491 146.454 215.386 149.396 213.051Z" fill="#00D2FF" stroke="#001E2B" stroke-width="0.75" stroke-miterlimit="10"/>
<path d="M146.722 209.683C148.496 208.275 148.125 204.854 145.893 202.042C143.661 199.23 140.414 198.092 138.64 199.5C136.867 200.908 137.238 204.328 139.47 207.14C141.702 209.952 144.949 211.09 146.722 209.683Z" fill="#0D427C"/>
<path d="M185.948 260.25C188.89 257.915 188.269 252.235 184.56 247.563C180.852 242.891 175.461 240.996 172.52 243.331C169.578 245.666 170.199 251.346 173.908 256.018C177.616 260.69 183.007 262.585 185.948 260.25Z" fill="#00D2FF" stroke="#001E2B" stroke-width="0.75" stroke-miterlimit="10"/>
<path d="M183.275 256.882C185.049 255.474 184.677 252.054 182.446 249.242C180.214 246.43 176.967 245.291 175.193 246.699C173.419 248.107 173.791 251.528 176.022 254.34C178.254 257.152 181.501 258.29 183.275 256.882Z" fill="#0D427C"/>
<path d="M222.406 231.681C225.348 229.346 224.726 223.666 221.018 218.993C217.31 214.321 211.919 212.427 208.977 214.761C206.036 217.096 206.657 222.776 210.365 227.449C214.073 232.121 219.464 234.015 222.406 231.681Z" fill="#00D2FF" stroke="#001E2B" stroke-width="0.75" stroke-miterlimit="10"/>
<path d="M219.733 228.312C221.506 226.905 221.135 223.484 218.903 220.672C216.671 217.86 213.424 216.722 211.651 218.13C209.877 219.537 210.248 222.958 212.48 225.77C214.712 228.582 217.959 229.72 219.733 228.312Z" fill="#0D427C"/>
<path d="M258.913 281.296C261.855 278.961 261.234 273.281 257.525 268.609C253.817 263.937 248.426 262.042 245.485 264.377C242.543 266.711 243.164 272.392 246.873 277.064C250.581 281.736 255.972 283.631 258.913 281.296Z" fill="#00D2FF" stroke="#001E2B" stroke-width="0.75" stroke-miterlimit="10"/>
<path d="M256.24 277.928C258.014 276.52 257.642 273.099 255.411 270.287C253.179 267.475 249.932 266.337 248.158 267.745C246.384 269.153 246.756 272.573 248.987 275.385C251.219 278.197 254.466 279.335 256.24 277.928Z" fill="#0D427C"/>
<path d="M295.548 237.329C298.49 234.994 297.868 229.314 294.16 224.642C290.452 219.97 285.061 218.075 282.119 220.41C279.178 222.745 279.799 228.425 283.507 233.097C287.216 237.769 292.606 239.664 295.548 237.329Z" fill="#00D2FF" stroke="#001E2B" stroke-width="0.75" stroke-miterlimit="10"/>
<path d="M292.875 233.961C294.649 232.553 294.277 229.133 292.045 226.321C289.814 223.509 286.567 222.37 284.793 223.778C283.019 225.186 283.391 228.607 285.622 231.419C287.854 234.23 291.101 235.369 292.875 233.961Z" fill="#0D427C"/>
<path d="M332.019 285.457C334.961 283.122 334.34 277.442 330.632 272.77C326.923 268.098 321.532 266.203 318.591 268.538C315.649 270.873 316.27 276.553 319.979 281.225C323.687 285.897 329.078 287.792 332.019 285.457Z" fill="#00D2FF" stroke="#001E2B" stroke-width="0.75" stroke-miterlimit="10"/>
<path d="M329.346 282.089C331.12 280.681 330.748 277.26 328.517 274.448C326.285 271.636 323.038 270.498 321.264 271.906C319.49 273.314 319.862 276.734 322.094 279.546C324.325 282.358 327.572 283.497 329.346 282.089Z" fill="#0D427C"/>
<path d="M368.55 279.962C371.492 277.628 370.871 271.947 367.163 267.275C363.454 262.603 358.063 260.708 355.122 263.043C352.18 265.378 352.801 271.058 356.51 275.73C360.218 280.403 365.609 282.297 368.55 279.962Z" fill="#00D2FF" stroke="#001E2B" stroke-width="0.75" stroke-miterlimit="10"/>
<path d="M365.877 276.594C367.651 275.187 367.279 271.766 365.048 268.954C362.816 266.142 359.569 265.004 357.795 266.411C356.021 267.819 356.393 271.24 358.625 274.052C360.856 276.864 364.103 278.002 365.877 276.594Z" fill="#0D427C"/>
<path d="M625.8 307.9L497.7 248.2C483.2 241.4 471.3 224 471.3 209.5C471.3 195 483.2 188.6 497.7 195.4L625.8 255.1C640.3 261.9 652.2 279.3 652.2 293.8C652.2 308.4 640.3 314.7 625.8 307.9Z" fill="white" stroke="#231F20" stroke-miterlimit="10"/>
<path d="M489.9 224.1L504.7 225.1L489.9 212.2V205.6L513.9 226.8V231.9L489.9 230.7V224.1Z" fill="#00D2FF" stroke="#001E2B" stroke-width="0.75" stroke-miterlimit="10"/>
<path d="M489.9 224.1L504.7 225.1L489.9 212.2V205.6L513.9 226.8V231.9L489.9 230.7V224.1Z" fill="#00D2FF" stroke="#001E2B" stroke-width="0.75" stroke-miterlimit="10"/>
<path d="M521.9 233.1L632.3 284.5" stroke="#001E2B" stroke-miterlimit="10" stroke-dasharray="2 2"/>
<path d="M471.3 209.5C471.3 212.4 471.8 215.4 472.7 218.4C473.1 218.6 473.5 218.8 474 219L596.5 276.1C611 282.9 622.9 276.5 622.9 262C622.9 259.1 622.4 256.1 621.5 253L497.8 195.3C483.2 188.6 471.3 195 471.3 209.5Z" fill="#001E2B"/>
<path d="M590.4 265L467.9 207.9C453.4 201.1 441.5 183.7 441.5 169.2C441.5 154.7 453.4 148.3 467.9 155.1L590.4 212.2C604.9 219 616.8 236.4 616.8 250.9C616.8 265.4 604.9 271.8 590.4 265Z" fill="white" stroke="#231F20" stroke-miterlimit="10"/>
<path d="M460 183.8L474.8 184.8L460 171.9V165.3L484 186.5V191.6L460 190.4V183.8Z" fill="#00ED64"/>
<path d="M460 183.8L474.8 184.8L460 171.9V165.3L484 186.5V191.6L460 190.4V183.8Z" fill="#00ED64" stroke="#001E2B" stroke-miterlimit="10" stroke-linecap="round" stroke-linejoin="round"/>
<path d="M492 192.7L596.8 241.6" stroke="#001E2B" stroke-miterlimit="10" stroke-dasharray="2 2"/>
<path d="M515.4 278.3L441 313V425.6L535.1 381.7V288.9L515.4 278.3Z" fill="#00D2FF" stroke="#001E2B" stroke-width="0.75" stroke-miterlimit="10"/>
<path d="M521.2 373.4L454.4 404.6C453.4 405.1 452.6 404.6 452.6 403.6C452.6 402.6 453.4 401.4 454.4 401L521.2 369.8C522.2 369.3 523 369.8 523 370.8C523 371.7 522.2 372.9 521.2 373.4Z" fill="#00ED64" stroke="#001E2B" stroke-width="0.75" stroke-miterlimit="10" stroke-linecap="round" stroke-linejoin="round"/>
<path d="M521.2 342.2L454.4 373.4C453.4 373.9 452.6 373.4 452.6 372.4C452.6 371.4 453.4 370.2 454.4 369.8L521.2 338.6C522.2 338.1 523 338.6 523 339.6C523 340.6 522.2 341.7 521.2 342.2Z" fill="#00ED64" stroke="#001E2B" stroke-width="0.75" stroke-miterlimit="10" stroke-linecap="round" stroke-linejoin="round"/>
<path d="M521.2 311.1L454.4 342.3C453.4 342.8 452.6 342.3 452.6 341.3C452.6 340.3 453.4 339.1 454.4 338.7L521.2 307.5C522.2 307 523 307.5 523 308.5C523 309.4 522.2 310.6 521.2 311.1Z" fill="#00ED64" stroke="#001E2B" stroke-width="0.75" stroke-miterlimit="10" stroke-linecap="round" stroke-linejoin="round"/>
<path d="M474.8 379.4L454.5 388.9C453.5 389.4 452.7 388.9 452.7 387.9C452.7 386.9 453.5 385.7 454.5 385.3L474.8 375.8C475.8 375.3 476.6 375.8 476.6 376.8C476.5 377.8 475.8 379 474.8 379.4Z" fill="#00ED64" stroke="#001E2B" stroke-width="0.75" stroke-miterlimit="10" stroke-linecap="round" stroke-linejoin="round"/>
<path d="M521.2 357.8L483.7 375.3C482.7 375.8 481.9 375.3 481.9 374.3C481.9 373.3 482.7 372.1 483.7 371.7L521.2 354.2C522.2 353.7 523 354.2 523 355.2C523 356.2 522.2 357.3 521.2 357.8Z" fill="#00ED64" stroke="#001E2B" stroke-width="0.75" stroke-miterlimit="10" stroke-linecap="round" stroke-linejoin="round"/>
<path d="M474.8 317.2L454.5 326.7C453.5 327.2 452.7 326.7 452.7 325.7C452.7 324.7 453.5 323.5 454.5 323.1L474.8 313.6C475.8 313.1 476.6 313.6 476.6 314.6C476.5 315.5 475.8 316.7 474.8 317.2Z" fill="#00ED64" stroke="#001E2B" stroke-width="0.75" stroke-miterlimit="10" stroke-linecap="round" stroke-linejoin="round"/>
<path d="M521.2 295.5L483.8 312.9C482.8 313.4 482 312.9 482 311.9C482 310.9 482.8 309.7 483.8 309.3L521.3 291.8C522.3 291.3 523.1 291.8 523.1 292.8C523 293.9 522.2 295 521.2 295.5Z" fill="#00ED64" stroke="#001E2B" stroke-width="0.75" stroke-miterlimit="10" stroke-linecap="round" stroke-linejoin="round"/>
<path d="M500.9 332.6L521.2 323.1C522.2 322.6 523 323.1 523 324.1C523 325.1 522.2 326.3 521.2 326.7L500.9 336.2C499.9 336.7 499.1 336.2 499.1 335.2C499.1 334.2 499.9 333 500.9 332.6Z" fill="#00ED64" stroke="#001E2B" stroke-width="0.75" stroke-miterlimit="10" stroke-linecap="round" stroke-linejoin="round"/>
<path d="M454.4 354.2L491.9 336.7C492.9 336.2 493.7 336.7 493.7 337.7C493.7 338.7 492.9 339.9 491.9 340.3L454.4 357.8C453.4 358.3 452.6 357.8 452.6 356.8C452.6 355.8 453.4 354.7 454.4 354.2Z" fill="#00ED64" stroke="#001E2B" stroke-width="0.75" stroke-miterlimit="10" stroke-linecap="round" stroke-linejoin="round"/>
<path d="M517.7 297L515.2 301.9L535.1 288.9L517.7 297Z" fill="#001E2B" stroke="#001E2B" stroke-width="0.75" stroke-miterlimit="10"/>
<path d="M515.4 278.3V298.1L535.1 288.9L515.4 278.3Z" fill="white" stroke="#231F20" stroke-width="0.75" stroke-miterlimit="10" stroke-linejoin="round"/>
<path d="M536.1 297.5L461.7 332.2V444.8L555.9 400.9V308L536.1 297.5Z" fill="#00D2FF" stroke="#001E2B" stroke-width="0.75" stroke-miterlimit="10"/>
<path d="M542 392.5L475.2 423.7C474.2 424.2 473.4 423.7 473.4 422.7C473.4 421.7 474.2 420.5 475.2 420.1L542 388.9C543 388.4 543.8 388.9 543.8 389.9C543.8 390.9 543 392.1 542 392.5Z" fill="#B1FF05" stroke="#001F2C" stroke-width="0.75" stroke-miterlimit="10"/>
<path d="M542 361.4L475.2 392.6C474.2 393.1 473.4 392.6 473.4 391.6C473.4 390.6 474.2 389.4 475.2 389L542 357.8C543 357.3 543.8 357.8 543.8 358.8C543.8 359.8 543 360.9 542 361.4Z" fill="#B1FF05" stroke="#001F2C" stroke-width="0.75" stroke-miterlimit="10"/>
<path d="M542 330.2L475.2 361.4C474.2 361.9 473.4 361.4 473.4 360.4C473.4 359.4 474.2 358.2 475.2 357.8L542 326.6C543 326.1 543.8 326.6 543.8 327.6C543.8 328.6 543 329.8 542 330.2Z" fill="#B1FF05" stroke="#001F2C" stroke-width="0.75" stroke-miterlimit="10"/>
<path d="M495.5 398.6L475.2 408.1C474.2 408.6 473.4 408.1 473.4 407.1C473.4 406.1 474.2 404.9 475.2 404.5L495.5 395C496.5 394.5 497.3 395 497.3 396C497.3 397 496.5 398.2 495.5 398.6Z" fill="#B1FF05" stroke="#001F2C" stroke-width="0.75" stroke-miterlimit="10"/>
<path d="M542 377L504.5 394.5C503.5 395 502.7 394.5 502.7 393.5C502.7 392.5 503.5 391.3 504.5 390.9L542 373.4C543 372.9 543.8 373.4 543.8 374.4C543.8 375.3 543 376.5 542 377Z" fill="#B1FF05" stroke="#001F2C" stroke-width="0.75" stroke-miterlimit="10"/>
<path d="M495.5 336.3L475.2 345.8C474.2 346.3 473.4 345.8 473.4 344.8C473.4 343.8 474.2 342.6 475.2 342.2L495.5 332.7C496.5 332.2 497.3 332.7 497.3 333.7C497.3 334.7 496.5 335.9 495.5 336.3Z" fill="#B1FF05" stroke="#001F2C" stroke-width="0.75" stroke-miterlimit="10"/>
<path d="M542 314.7L504.5 332.2C503.5 332.7 502.7 332.2 502.7 331.2C502.7 330.2 503.5 329 504.5 328.6L542 311.1C543 310.6 543.8 311.1 543.8 312.1C543.8 313 543 314.2 542 314.7Z" fill="#B1FF05" stroke="#001F2C" stroke-width="0.75" stroke-miterlimit="10"/>
<path d="M521.7 351.7L542 342.2C543 341.7 543.8 342.2 543.8 343.2C543.8 344.2 543 345.4 542 345.8L521.7 355.3C520.7 355.8 519.9 355.3 519.9 354.3C519.9 353.4 520.7 352.2 521.7 351.7Z" fill="#B1FF05" stroke="#001F2C" stroke-width="0.75" stroke-miterlimit="10"/>
<path d="M475.2 373.4L512.6 355.9C513.6 355.4 514.4 355.9 514.4 356.9C514.4 357.9 513.6 359.1 512.6 359.5L475.1 377C474.1 377.5 473.3 377 473.3 376C473.4 375 474.2 373.9 475.2 373.4Z" fill="#B1FF05" stroke="#001F2C" stroke-width="0.75" stroke-miterlimit="10"/>
<path d="M538.4 316.2L536 321.1L555.9 308L538.4 316.2Z" fill="#001E2B" stroke="#001E2B" stroke-width="0.75" stroke-miterlimit="10"/>
<path d="M536.1 297.5V317.3L555.9 308L536.1 297.5Z" fill="white" stroke="#231F20" stroke-width="0.75" stroke-miterlimit="10" stroke-linejoin="round"/>
<path d="M273.4 397C273.4 397 274.5 398.9 269.6 401.6C264.7 404.3 263.7 402.3 263.7 402.3L246.8 371.2C246.8 371.2 246.3 369.1 250.7 366.7C255.1 364.3 256.6 365.9 256.6 365.9L273.4 397Z" fill="#00D2FF" stroke="#001E2B" stroke-width="0.75" stroke-miterlimit="10"/>
<path d="M263.6 402.4L246.7 371.3C246.7 371.3 246.2 369.2 250.6 366.8C254.5 364.6 256.2 365.7 256.4 365.9C252.1 368.3 252.5 370.4 252.5 370.4L269.4 401.5C269.4 401.5 269.4 401.6 269.5 401.6C264.7 404.3 263.6 402.4 263.6 402.4Z" fill="#001F2C"/>
<path d="M257.9 367C257.9 367 258.2 369.3 253.6 371.9C249 374.5 247.2 373 247.2 373L242.4 364.5C242.4 364.5 244.2 364.1 248 361.9C251.9 359.7 253.1 358.4 253.1 358.4L257.9 367Z" fill="#00D2FF" stroke="#001E2B" stroke-width="0.75" stroke-miterlimit="10"/>
<path d="M266.8 312.2C277.2 330.7 270.7 354.1 252.2 364.6C233.7 375.1 210.3 368.5 199.8 350C189.4 331.5 195.9 308.1 214.4 297.6C232.9 287.2 256.4 293.7 266.8 312.2ZM216.4 301.1C199.8 310.5 194 331.5 203.4 348C212.8 364.5 233.8 370.4 250.3 361C266.9 351.6 272.7 330.6 263.3 314.1C254 297.6 233 291.8 216.4 301.1Z" fill="#001F2C"/>
<path d="M266.8 312.2C277.2 330.7 270.7 354.1 252.2 364.6C233.7 375.1 210.3 368.5 199.8 350C189.4 331.5 195.9 308.1 214.4 297.6C232.9 287.2 256.4 293.7 266.8 312.2ZM216.4 301.1C199.8 310.5 194 331.5 203.4 348C212.8 364.5 233.8 370.4 250.3 361C266.9 351.6 272.7 330.6 263.3 314.1C254 297.6 233 291.8 216.4 301.1Z" stroke="#001F2C" stroke-width="0.75" stroke-miterlimit="10"/>
<path d="M263.6 310.2C274 328.7 267.5 352.1 249 362.6C230.5 373.1 207.1 366.5 196.6 348C186.2 329.5 192.7 306.1 211.2 295.6C229.7 285.1 253.2 291.8 263.6 310.2ZM213.2 299.2C196.6 308.6 190.8 329.6 200.2 346.1C209.6 362.7 230.6 368.5 247.1 359.1C263.7 349.7 269.5 328.7 260.1 312.2C250.7 295.7 229.8 289.8 213.2 299.2Z" fill="#00D2FF" stroke="#001E2B" stroke-width="0.75" stroke-miterlimit="10"/>
<path d="M263.6 310.2C274 328.7 267.5 352.1 249 362.6C230.5 373.1 207.1 366.5 196.6 348C186.2 329.5 192.7 306.1 211.2 295.6C229.7 285.1 253.2 291.8 263.6 310.2ZM213.2 299.2C196.6 308.6 190.8 329.6 200.2 346.1C209.6 362.7 230.6 368.5 247.1 359.1C263.7 349.7 269.5 328.7 260.1 312.2C250.7 295.7 229.8 289.8 213.2 299.2Z" fill="#00D2FF" stroke="#001E2B" stroke-width="0.75" stroke-miterlimit="10"/>
<path d="M247 363.9L252 372.8C252 372.8 248.7 374.2 247.1 373.1L242.9 365.6L247 363.9Z" fill="#001F2C"/>
<path d="M363.7 83.4C372.592 83.4 379.8 76.1918 379.8 67.3C379.8 58.4082 372.592 51.2 363.7 51.2C354.808 51.2 347.6 58.4082 347.6 67.3C347.6 76.1918 354.808 83.4 363.7 83.4Z" fill="white" stroke="#001E2B" stroke-miterlimit="10"/>
<path d="M354 80C354 80 374.3 73.2 377.2 58.3C380.7 63 382 73.6 374.4 79.3C366.8 85 359.4 83 354 80Z" fill="#001E2B"/>
<path d="M592.5 129.7L578.8 123.3L577.7 140.1L595.6 131.3C594.6 130.7 593.6 130.2 592.5 129.7Z" fill="#001E2B"/>
</svg>
